<svg width="89" height="19" viewBox="0 0 89 19" fill="none" xmlns="http://www.w3.org/2000/svg">
<path d="M17.624 1.44C18.488 1.44 18.936 1.888 18.968 2.784L19.592 18H16.208L15.656 4.272H15.224L12.56 14.592C12.416 15.36 11.936 15.744 11.12 15.744H8.816C8 15.744 7.504 15.36 7.328 14.592L4.664 4.272H4.256L3.752 18H0.344L0.968 2.784C1 1.888 1.456 1.44 2.336 1.44H5.768C6.552 1.44 7.032 1.832 7.208 2.616L9.344 10.944C9.44 11.328 9.52 11.72 9.584 12.12C9.648 12.504 9.72 12.896 9.8 13.296H10.112C10.192 12.896 10.264 12.504 10.328 12.12C10.408 11.72 10.488 11.32 10.568 10.92L12.68 2.616C12.84 1.832 13.32 1.44 14.12 1.44H17.624ZM29.2169 1.104C30.5289 1.104 31.6409 1.248 32.5529 1.536C33.4649 1.808 34.1929 2.272 34.7369 2.928C35.2969 3.568 35.7049 4.448 35.9609 5.568C36.2169 6.672 36.3449 8.056 36.3449 9.72C36.3449 11.384 36.2169 12.776 35.9609 13.896C35.7049 15 35.2969 15.88 34.7369 16.536C34.1929 17.176 33.4649 17.64 32.5529 17.928C31.6409 18.2 30.5289 18.336 29.2169 18.336C27.9049 18.336 26.7929 18.2 25.8809 17.928C24.9689 17.64 24.2329 17.176 23.6729 16.536C23.1129 15.88 22.7049 15 22.4489 13.896C22.1929 12.776 22.0649 11.384 22.0649 9.72C22.0649 8.056 22.1929 6.672 22.4489 5.568C22.7049 4.448 23.1129 3.568 23.6729 2.928C24.2329 2.272 24.9689 1.808 25.8809 1.536C26.7929 1.248 27.9049 1.104 29.2169 1.104ZM29.2169 4.008C28.3689 4.008 27.7049 4.176 27.2249 4.512C26.7609 4.848 26.4249 5.432 26.2169 6.264C26.0249 7.08 25.9289 8.232 25.9289 9.72C25.9289 11.192 26.0249 12.344 26.2169 13.176C26.4249 14.008 26.7609 14.592 27.2249 14.928C27.7049 15.264 28.3689 15.432 29.2169 15.432C30.0489 15.432 30.6969 15.264 31.1609 14.928C31.6409 14.592 31.9769 14.008 32.1689 13.176C32.3769 12.344 32.4809 11.192 32.4809 9.72C32.4809 8.232 32.3769 7.08 32.1689 6.264C31.9769 5.432 31.6409 4.848 31.1609 4.512C30.6969 4.176 30.0489 4.008 29.2169 4.008ZM45.6444 1.2C46.9564 1.2 48.0604 1.344 48.9564 1.632C49.8684 1.904 50.5964 2.36 51.1404 3C51.7004 3.64 52.1084 4.512 52.3644 5.616C52.6204 6.704 52.7484 8.072 52.7484 9.72C52.7484 11.368 52.6204 12.744 52.3644 13.848C52.1084 14.936 51.7004 15.8 51.1404 16.44C50.5964 17.08 49.8684 17.544 48.9564 17.832C48.0604 18.104 46.9564 18.24 45.6444 18.24C44.3804 18.24 43.2204 18.216 42.1644 18.168C41.1084 18.12 40.1004 18.064 39.1404 18L40.6764 15.288C41.2844 15.32 42.0044 15.352 42.8364 15.384C43.6844 15.4 44.6204 15.408 45.6444 15.408C46.4604 15.408 47.1004 15.248 47.5644 14.928C48.0444 14.592 48.3804 14.008 48.5724 13.176C48.7804 12.344 48.8844 11.192 48.8844 9.72C48.8844 8.248 48.7804 7.096 48.5724 6.264C48.3804 5.432 48.0444 4.848 47.5644 4.512C47.1004 4.176 46.4604 4.008 45.6444 4.008C44.6684 4.008 43.7964 4.016 43.0284 4.032C42.2604 4.032 41.5084 4.032 40.7724 4.032L39.1404 1.44C40.1004 1.376 41.1004 1.32 42.1404 1.272C43.1964 1.224 44.3644 1.2 45.6444 1.2ZM42.8124 1.44V18H39.1404V1.44H42.8124ZM58.9312 6.144V18H55.4032V6.144H58.9312ZM57.9472 0.912C58.6512 0.912 59.0032 1.272 59.0032 1.992V3.264C59.0032 3.984 58.6512 4.344 57.9472 4.344H56.4112C55.7072 4.344 55.3552 3.984 55.3552 3.264V1.992C55.3552 1.272 55.7072 0.912 56.4112 0.912H57.9472ZM75.668 1.44L71.156 16.992C71.076 17.28 70.916 17.52 70.676 17.712C70.452 17.904 70.18 18 69.86 18H66.5C66.164 18 65.876 17.904 65.636 17.712C65.412 17.52 65.268 17.28 65.204 16.992L60.668 1.44H64.46L67.484 13.392C67.548 13.696 67.612 14.008 67.676 14.328C67.756 14.632 67.82 14.936 67.868 15.24H68.492C68.54 14.936 68.596 14.624 68.66 14.304C68.74 13.984 68.82 13.672 68.9 13.368L71.9 1.44H75.668ZM80.9156 1.368C81.8116 1.368 82.7156 1.376 83.6276 1.392C84.5396 1.392 85.4356 1.408 86.3156 1.44C87.1956 1.472 88.0196 1.528 88.7876 1.608L88.6196 4.272H82.2596C81.8596 4.272 81.5556 4.376 81.3476 4.584C81.1556 4.792 81.0596 5.096 81.0596 5.496V13.944C81.0596 14.344 81.1556 14.648 81.3476 14.856C81.5556 15.064 81.8596 15.168 82.2596 15.168H88.6196L88.7876 17.832C88.0196 17.896 87.1956 17.952 86.3156 18C85.4356 18.032 84.5396 18.048 83.6276 18.048C82.7156 18.064 81.8116 18.072 80.9156 18.072C79.8596 18.072 79.0036 17.768 78.3476 17.16C77.7076 16.536 77.3876 15.728 77.3876 14.736V4.704C77.3876 3.696 77.7076 2.888 78.3476 2.28C79.0036 1.672 79.8596 1.368 80.9156 1.368ZM77.8196 8.088H87.7316V10.68H77.8196V8.088Z" fill="url(#paint0_linear_683_2654)"/>
<defs>
<linearGradient id="paint0_linear_683_2654" x1="-1" y1="8.5" x2="90" y2="8.5" gradientUnits="userSpaceOnUse">
<stop stop-color="#3F5AF0"/>
<stop offset="1" stop-color="#3F51B5"/>
</linearGradient>
</defs>
</svg>
